# xmcd CD database file
#
# Track frame offsets:
#	187
#	19510
#	38640
#
# Disc length: 770 seconds
#
# Revision: 7
# Processed by: cddbd v1.5.1PL0 Copyright (c) Steve Scherf et al.
# Submitted via: CDex 1.51
#
DISCID=15030003
DTITLE=Konta - otherwise
DYEAR=1995
DGENRE=J-POP
TTITLE0=otherwise
TTITLE1=悪戯しよう
TTITLE2=otherwise TV MIX
EXTD=YEAR: 1995
EXTT0=
EXTT1=
EXTT2=
PLAYORDER=
